<mxfile host="app.diagrams.net" modified="2020-09-20T11:08:15.073Z" agent="5.0 (Macintosh; Intel Mac OS X 10_15_1) AppleWebKit/537.36 (KHTML, like Gecko) Chrome/85.0.4183.83 Safari/537.36" etag="fx727VZVTTd66xzs6FcV" version="13.7.3" type="github">
  <diagram id="dYVmNrh_v-VT7exf2gvE" name="Page-1">
    <mxGraphModel dx="1186" dy="677" grid="1" gridSize="10" guides="1" tooltips="1" connect="1" arrows="1" fold="1" page="1" pageScale="1" pageWidth="827" pageHeight="1169" math="0" shadow="0">
      <root>
        <mxCell id="0" />
        <mxCell id="1" parent="0" />
        <mxCell id="IUUQ0ly7gvBfvdionaD4-1" value="&lt;font&gt;&lt;b style=&quot;font-size: 18px&quot;&gt;Apache&amp;nbsp; Kafka&amp;nbsp;&lt;/b&gt;&lt;br&gt;&lt;span style=&quot;text-align: left ; font-size: 14px&quot;&gt;&lt;br&gt;Is used for the Distribution of Logs(Events).&lt;br&gt;&lt;/span&gt;&lt;span style=&quot;font-size: 14px ; text-align: left&quot;&gt;Logs are the records of things that happen.&lt;/span&gt;&lt;span style=&quot;font-size: 14px ; text-align: left&quot;&gt;&amp;nbsp;&lt;/span&gt;&lt;span style=&quot;text-align: left ; font-size: 14px&quot;&gt;&lt;br&gt;&lt;/span&gt;&lt;/font&gt;&lt;div style=&quot;text-align: left&quot;&gt;&lt;span style=&quot;font-size: 18px&quot;&gt;&lt;b&gt;&lt;br&gt;&lt;/b&gt;&lt;/span&gt;&lt;/div&gt;" style="rounded=1;whiteSpace=wrap;html=1;" vertex="1" parent="1">
          <mxGeometry x="60" y="110" width="660" height="140" as="geometry" />
        </mxCell>
        <mxCell id="IUUQ0ly7gvBfvdionaD4-7" value="&lt;font style=&quot;font-size: 18px&quot;&gt;&lt;b&gt;Kafka Connect&lt;/b&gt;&amp;nbsp;&lt;br&gt;&lt;br&gt;&lt;/font&gt;&lt;font style=&quot;font-size: 14px&quot;&gt;It is used for database integration like &lt;br&gt;&lt;/font&gt;&lt;ul&gt;&lt;li style=&quot;text-align: left&quot;&gt;&lt;font style=&quot;font-size: 14px&quot;&gt;Reading from a Database&lt;/font&gt;&lt;/li&gt;&lt;li style=&quot;text-align: left&quot;&gt;&lt;font style=&quot;font-size: 14px&quot;&gt;Writing into Database&lt;span&gt;&amp;nbsp;&lt;/span&gt;&lt;/font&gt;&lt;/li&gt;&lt;/ul&gt;" style="rounded=1;whiteSpace=wrap;html=1;" vertex="1" parent="1">
          <mxGeometry x="70" y="290" width="280" height="150" as="geometry" />
        </mxCell>
        <mxCell id="IUUQ0ly7gvBfvdionaD4-8" value="&lt;b&gt;&lt;font style=&quot;font-size: 18px&quot;&gt;Java Stream - API &lt;br&gt;&lt;/font&gt;&lt;/b&gt;&lt;font&gt;&lt;font style=&quot;font-size: 14px&quot;&gt;It is used for handling the Framework and infrastructure like for example&amp;nbsp;&lt;/font&gt;&lt;br&gt;&lt;/font&gt;&lt;div style=&quot;text-align: left&quot;&gt;&lt;ul&gt;&lt;li&gt;&lt;font style=&quot;font-size: 14px&quot;&gt;Grouping&amp;nbsp;&lt;/font&gt;&lt;/li&gt;&lt;li&gt;&lt;font style=&quot;font-size: 14px&quot;&gt;Filtering&amp;nbsp;&lt;/font&gt;&lt;/li&gt;&lt;li&gt;&lt;font style=&quot;font-size: 14px&quot;&gt;Aggregation&amp;nbsp;&lt;/font&gt;&lt;/li&gt;&lt;li&gt;&lt;font style=&quot;font-size: 14px&quot;&gt;Enrichment (Joints)&lt;/font&gt;&lt;/li&gt;&lt;/ul&gt;&lt;/div&gt;" style="rounded=1;whiteSpace=wrap;html=1;" vertex="1" parent="1">
          <mxGeometry x="420" y="290" width="290" height="170" as="geometry" />
        </mxCell>
        <mxCell id="IUUQ0ly7gvBfvdionaD4-22" value="&lt;span&gt;Events&lt;/span&gt;" style="shape=process;whiteSpace=wrap;html=1;backgroundOutline=1;" vertex="1" parent="1">
          <mxGeometry x="180" y="550" width="120" height="60" as="geometry" />
        </mxCell>
        <mxCell id="IUUQ0ly7gvBfvdionaD4-23" value="Events" style="shape=process;whiteSpace=wrap;html=1;backgroundOutline=1;" vertex="1" parent="1">
          <mxGeometry x="60" y="550" width="120" height="60" as="geometry" />
        </mxCell>
        <mxCell id="IUUQ0ly7gvBfvdionaD4-24" value="&lt;span&gt;Events&lt;/span&gt;" style="shape=process;whiteSpace=wrap;html=1;backgroundOutline=1;" vertex="1" parent="1">
          <mxGeometry x="540" y="550" width="120" height="60" as="geometry" />
        </mxCell>
        <mxCell id="IUUQ0ly7gvBfvdionaD4-25" value="&lt;span&gt;Events&lt;/span&gt;" style="shape=process;whiteSpace=wrap;html=1;backgroundOutline=1;" vertex="1" parent="1">
          <mxGeometry x="420" y="550" width="120" height="60" as="geometry" />
        </mxCell>
        <mxCell id="IUUQ0ly7gvBfvdionaD4-26" value="&lt;span&gt;Events&lt;/span&gt;" style="shape=process;whiteSpace=wrap;html=1;backgroundOutline=1;" vertex="1" parent="1">
          <mxGeometry x="300" y="550" width="120" height="60" as="geometry" />
        </mxCell>
        <mxCell id="IUUQ0ly7gvBfvdionaD4-27" value="&lt;span&gt;Events&lt;/span&gt;" style="shape=process;whiteSpace=wrap;html=1;backgroundOutline=1;" vertex="1" parent="1">
          <mxGeometry x="180" y="900" width="120" height="60" as="geometry" />
        </mxCell>
        <mxCell id="IUUQ0ly7gvBfvdionaD4-28" value="&lt;span&gt;Events&lt;/span&gt;" style="shape=process;whiteSpace=wrap;html=1;backgroundOutline=1;" vertex="1" parent="1">
          <mxGeometry x="60" y="900" width="120" height="60" as="geometry" />
        </mxCell>
        <mxCell id="IUUQ0ly7gvBfvdionaD4-29" value="&lt;span&gt;Events&lt;/span&gt;" style="shape=process;whiteSpace=wrap;html=1;backgroundOutline=1;" vertex="1" parent="1">
          <mxGeometry x="540" y="900" width="120" height="60" as="geometry" />
        </mxCell>
        <mxCell id="IUUQ0ly7gvBfvdionaD4-30" value="&lt;span&gt;Events&lt;/span&gt;" style="shape=process;whiteSpace=wrap;html=1;backgroundOutline=1;" vertex="1" parent="1">
          <mxGeometry x="420" y="900" width="120" height="60" as="geometry" />
        </mxCell>
        <mxCell id="IUUQ0ly7gvBfvdionaD4-31" value="&lt;span&gt;Events&lt;/span&gt;" style="shape=process;whiteSpace=wrap;html=1;backgroundOutline=1;" vertex="1" parent="1">
          <mxGeometry x="300" y="900" width="120" height="60" as="geometry" />
        </mxCell>
        <mxCell id="IUUQ0ly7gvBfvdionaD4-33" value="&lt;font style=&quot;font-size: 18px&quot;&gt;&lt;b&gt;Topic&lt;/b&gt;&lt;/font&gt;&amp;nbsp;&amp;nbsp;" style="rounded=1;whiteSpace=wrap;html=1;" vertex="1" parent="1">
          <mxGeometry x="680" y="565" width="80" height="30" as="geometry" />
        </mxCell>
        <mxCell id="IUUQ0ly7gvBfvdionaD4-34" value="&lt;font style=&quot;font-size: 18px&quot;&gt;&lt;b&gt;Topic&lt;/b&gt;&lt;/font&gt;&amp;nbsp;&amp;nbsp;" style="rounded=1;whiteSpace=wrap;html=1;" vertex="1" parent="1">
          <mxGeometry x="680" y="915" width="80" height="30" as="geometry" />
        </mxCell>
        <mxCell id="IUUQ0ly7gvBfvdionaD4-35" value="Service&amp;nbsp;" style="rounded=0;whiteSpace=wrap;html=1;" vertex="1" parent="1">
          <mxGeometry x="70" y="700" width="120" height="60" as="geometry" />
        </mxCell>
        <mxCell id="IUUQ0ly7gvBfvdionaD4-36" value="&lt;span&gt;Service&lt;/span&gt;" style="rounded=0;whiteSpace=wrap;html=1;" vertex="1" parent="1">
          <mxGeometry x="499" y="700" width="120" height="60" as="geometry" />
        </mxCell>
        <mxCell id="IUUQ0ly7gvBfvdionaD4-37" value="&lt;span&gt;Service&lt;/span&gt;" style="rounded=0;whiteSpace=wrap;html=1;" vertex="1" parent="1">
          <mxGeometry x="290" y="700" width="120" height="60" as="geometry" />
        </mxCell>
        <mxCell id="IUUQ0ly7gvBfvdionaD4-38" value="" style="curved=1;endArrow=classic;html=1;exitX=0.592;exitY=1.017;exitDx=0;exitDy=0;exitPerimeter=0;entryX=0.392;entryY=-0.067;entryDx=0;entryDy=0;entryPerimeter=0;" edge="1" parent="1" source="IUUQ0ly7gvBfvdionaD4-23" target="IUUQ0ly7gvBfvdionaD4-36">
          <mxGeometry width="50" height="50" relative="1" as="geometry">
            <mxPoint x="390" y="680" as="sourcePoint" />
            <mxPoint x="440" y="630" as="targetPoint" />
            <Array as="points">
              <mxPoint x="440" y="680" />
              <mxPoint x="390" y="630" />
            </Array>
          </mxGeometry>
        </mxCell>
        <mxCell id="IUUQ0ly7gvBfvdionaD4-39" value="" style="curved=1;endArrow=classic;html=1;exitX=0.692;exitY=1.033;exitDx=0;exitDy=0;exitPerimeter=0;entryX=0.5;entryY=0;entryDx=0;entryDy=0;" edge="1" parent="1" source="IUUQ0ly7gvBfvdionaD4-36" target="IUUQ0ly7gvBfvdionaD4-31">
          <mxGeometry width="50" height="50" relative="1" as="geometry">
            <mxPoint x="390" y="680" as="sourcePoint" />
            <mxPoint x="250" y="740" as="targetPoint" />
            <Array as="points">
              <mxPoint x="540" y="830" />
              <mxPoint x="510" y="820" />
              <mxPoint x="500" y="810" />
              <mxPoint x="440" y="810" />
              <mxPoint x="450" y="830" />
              <mxPoint x="400" y="870" />
            </Array>
          </mxGeometry>
        </mxCell>
        <mxCell id="IUUQ0ly7gvBfvdionaD4-40" value="&lt;p style=&quot;box-sizing: border-box ; font-family: &amp;#34;roboto&amp;#34; , sans-serif ; font-size: 15px&quot;&gt;&lt;b&gt;EVENTS&lt;/b&gt;&lt;/p&gt;&lt;p style=&quot;text-align: left ; box-sizing: border-box ; font-family: &amp;#34;roboto&amp;#34; , sans-serif ; font-size: 15px&quot;&gt;&amp;nbsp;Conceptually, an event has a key, value, timestamp, and optional metadata headers. Here&#39;s an example&amp;nbsp; &amp;nbsp;event:&lt;/p&gt;&lt;ul style=&quot;box-sizing: border-box ; padding-left: 2rem ; margin: 1rem 0px ; font-family: &amp;#34;roboto&amp;#34; , sans-serif ; font-size: 15px&quot;&gt;&lt;li style=&quot;text-align: left ; box-sizing: border-box&quot;&gt;Event key: &quot;Alice&quot;&lt;/li&gt;&lt;li style=&quot;text-align: left ; box-sizing: border-box&quot;&gt;Event value: &quot;Made payment of $200 to Bob&quot;&lt;/li&gt;&lt;li style=&quot;text-align: left ; box-sizing: border-box&quot;&gt;Event timestamp: &quot;Jun. 25, 2020 at 2:06 p.m.&quot;&lt;/li&gt;&lt;/ul&gt;" style="rounded=1;whiteSpace=wrap;html=1;" vertex="1" parent="1">
          <mxGeometry x="50" y="1030" width="710" height="210" as="geometry" />
        </mxCell>
        <mxCell id="IUUQ0ly7gvBfvdionaD4-42" value="&lt;p style=&quot;box-sizing: border-box ; font-family: &amp;#34;roboto&amp;#34; , sans-serif ; font-size: 15px&quot;&gt;In addition to command-line tooling for management and administration tasks, Kafka has five core APIs for Java and Scala:&lt;/p&gt;&lt;ul style=&quot;box-sizing: border-box ; padding-left: 2rem ; margin: 1rem 0px ; font-family: &amp;#34;roboto&amp;#34; , sans-serif ; font-size: 15px&quot;&gt;&lt;li style=&quot;box-sizing: border-box&quot;&gt;The&amp;nbsp;&lt;a href=&quot;https://kafka.apache.org/documentation.html#adminapi&quot; style=&quot;box-sizing: border-box&quot;&gt;Admin API&lt;/a&gt;&amp;nbsp;to manage and inspect topics, brokers, and other Kafka objects.&lt;/li&gt;&lt;li style=&quot;box-sizing: border-box&quot;&gt;The&amp;nbsp;&lt;a href=&quot;https://kafka.apache.org/documentation.html#producerapi&quot; style=&quot;box-sizing: border-box&quot;&gt;Producer API&lt;/a&gt;&amp;nbsp;to publish (write) a stream of events to one or more Kafka topics.&lt;/li&gt;&lt;li style=&quot;box-sizing: border-box&quot;&gt;The&amp;nbsp;&lt;a href=&quot;https://kafka.apache.org/documentation.html#consumerapi&quot; style=&quot;box-sizing: border-box&quot;&gt;Consumer API&lt;/a&gt;&amp;nbsp;to subscribe to (read) one or more topics and to process the stream of events produced to them.&lt;/li&gt;&lt;li style=&quot;box-sizing: border-box&quot;&gt;The&amp;nbsp;&lt;a href=&quot;https://kafka.apache.org/documentation/streams&quot; style=&quot;box-sizing: border-box&quot;&gt;Kafka Streams API&lt;/a&gt;&amp;nbsp;to implement stream processing applications and microservices. It provides higher-level functions to process event streams, including transformations, stateful operations like aggregations and joins, windowing, processing based on event-time, and more. Input is read from one or more topics in order to generate output to one or more topics, effectively transforming the input streams to output streams.&lt;/li&gt;&lt;li style=&quot;box-sizing: border-box&quot;&gt;The&amp;nbsp;&lt;a href=&quot;https://kafka.apache.org/documentation.html#connect&quot; style=&quot;box-sizing: border-box&quot;&gt;Kafka Connect API&lt;/a&gt;&amp;nbsp;to build and run reusable data import/export connectors that consume (read) or produce (write) streams of events from and to external systems and applications so they can integrate with Kafka. For example, a connector to a relational database like PostgreSQL might capture every change to a set of tables. However, in practice, you typically don&#39;t need to implement your own connectors because the Kafka community already provides hundreds of ready-to-use connectors.&lt;/li&gt;&lt;/ul&gt;" style="rounded=1;whiteSpace=wrap;html=1;align=left;" vertex="1" parent="1">
          <mxGeometry x="40" y="1300" width="720" height="420" as="geometry" />
        </mxCell>
        <mxCell id="IUUQ0ly7gvBfvdionaD4-43" value="&lt;ol&gt;&lt;li&gt;&lt;font style=&quot;font-size: 18px&quot;&gt;Producer&lt;/font&gt;&lt;/li&gt;&lt;li&gt;&lt;font style=&quot;font-size: 18px&quot;&gt;Consumer&amp;nbsp;&lt;/font&gt;&lt;/li&gt;&lt;li&gt;&lt;font style=&quot;font-size: 18px&quot;&gt;Broker&lt;/font&gt;&lt;/li&gt;&lt;li&gt;&lt;font style=&quot;font-size: 18px&quot;&gt;Cluster&amp;nbsp;&lt;/font&gt;&lt;/li&gt;&lt;li&gt;&lt;font style=&quot;font-size: 18px&quot;&gt;Topic&lt;/font&gt;&lt;/li&gt;&lt;li&gt;&lt;font style=&quot;font-size: 18px&quot;&gt;Partitions&lt;/font&gt;&lt;/li&gt;&lt;li&gt;&lt;font style=&quot;font-size: 18px&quot;&gt;Offset&amp;nbsp;&lt;/font&gt;&lt;/li&gt;&lt;li&gt;&lt;font style=&quot;font-size: 18px&quot;&gt;Consumer Group&amp;nbsp;&lt;/font&gt;&lt;/li&gt;&lt;/ol&gt;&amp;nbsp;" style="rounded=1;whiteSpace=wrap;html=1;align=left;" vertex="1" parent="1">
          <mxGeometry x="50" y="1790" width="200" height="220" as="geometry" />
        </mxCell>
        <mxCell id="IUUQ0ly7gvBfvdionaD4-45" value="&lt;font style=&quot;font-size: 18px&quot;&gt;&lt;b&gt;Kafka Server or Kafka Broker&lt;br&gt;&lt;br&gt;&lt;/b&gt;&lt;/font&gt;" style="rounded=1;whiteSpace=wrap;html=1;" vertex="1" parent="1">
          <mxGeometry x="220" y="2080" width="360" height="440" as="geometry" />
        </mxCell>
        <mxCell id="IUUQ0ly7gvBfvdionaD4-46" value="Producer" style="rounded=0;whiteSpace=wrap;html=1;" vertex="1" parent="1">
          <mxGeometry x="30" y="2130" width="120" height="60" as="geometry" />
        </mxCell>
        <mxCell id="IUUQ0ly7gvBfvdionaD4-47" value="Producer" style="rounded=0;whiteSpace=wrap;html=1;" vertex="1" parent="1">
          <mxGeometry x="30" y="2380" width="120" height="60" as="geometry" />
        </mxCell>
        <mxCell id="IUUQ0ly7gvBfvdionaD4-48" value="Producer" style="rounded=0;whiteSpace=wrap;html=1;" vertex="1" parent="1">
          <mxGeometry x="30" y="2250" width="120" height="60" as="geometry" />
        </mxCell>
        <mxCell id="IUUQ0ly7gvBfvdionaD4-49" value="Consumer&amp;nbsp;" style="rounded=0;whiteSpace=wrap;html=1;" vertex="1" parent="1">
          <mxGeometry x="640" y="2125" width="120" height="60" as="geometry" />
        </mxCell>
        <mxCell id="IUUQ0ly7gvBfvdionaD4-50" value="Consumer&amp;nbsp;" style="rounded=0;whiteSpace=wrap;html=1;" vertex="1" parent="1">
          <mxGeometry x="640" y="2375" width="120" height="60" as="geometry" />
        </mxCell>
        <mxCell id="IUUQ0ly7gvBfvdionaD4-51" value="Consumer&amp;nbsp;" style="rounded=0;whiteSpace=wrap;html=1;" vertex="1" parent="1">
          <mxGeometry x="640" y="2245" width="120" height="60" as="geometry" />
        </mxCell>
        <mxCell id="IUUQ0ly7gvBfvdionaD4-52" value="&lt;ol&gt;&lt;li&gt;Partitioning and Consumer Group is a tool for Scalability&amp;nbsp;&lt;/li&gt;&lt;li&gt;&lt;span&gt;The maximum number of consumers in a group should be equal to the Total number of partition&amp;nbsp; in a Topic&lt;/span&gt;&lt;br&gt;&lt;/li&gt;&lt;li&gt;&lt;span&gt;More than Two Consumers cannot read from the same topic this is to&amp;nbsp; avoid the double reading of records&lt;/span&gt;&lt;/li&gt;&lt;/ol&gt;" style="rounded=1;whiteSpace=wrap;html=1;align=left;" vertex="1" parent="1">
          <mxGeometry x="340" y="1810" width="410" height="150" as="geometry" />
        </mxCell>
      </root>
    </mxGraphModel>
  </diagram>
</mxfile>
